<?xml version="1.0" encoding="UTF-8"?>
<svg id="Layer_2" data-name="Layer 2" xmlns="http://www.w3.org/2000/svg" width="1792.53" height="334.21" viewBox="0 0 1792.53 334.21">
  <g id="Layer_1-2" data-name="Layer 1">
    <g>
      <g>
        <path d="M542.62,82.27h-75.55v59.66h64.61v15.11h-64.61v64.61h-17.19V66.9h94.05l-1.3,15.37Z" fill="#fff"/>
        <path d="M589.51,69.77c0,6.25-4.69,10.94-10.68,10.94s-11.2-4.69-11.2-10.94,4.95-10.68,11.2-10.68,10.68,4.69,10.68,10.68ZM586.9,221.65h-16.67v-114.11l16.67-1.04v115.15Z" fill="#fff"/>
        <path d="M630.15,167.73c1.56,24.75,19.8,40.64,46.63,40.64,14.33,0,29.7-4.43,39.08-11.98l.78,15.63c-8.86,6.77-25.79,11.2-40.64,11.2-38.04,0-63.31-22.93-63.31-60.18,0-34.39,23.19-57.58,54.45-57.58,28.66,0,48.98,19.28,48.98,48.46,0,4.17-.52,9.64-1.04,13.81h-84.93ZM629.62,156.78h70.08c.26-1.3.26-3.12.26-4.95,0-19.28-13.03-33.35-32.83-33.35s-35.69,14.85-37.52,38.3Z" fill="#fff"/>
        <path d="M761.44,221.65h-16.67V57.78l16.67-1.3v165.17Z" fill="#fff"/>
        <path d="M893.26,221.65h-16.67v-9.38c-9.9,7.3-21.62,10.94-34.39,10.94-30.22,0-54.97-21.36-54.97-58.1s24.75-59.66,59.92-59.66c10.68,0,21.36,1.82,29.44,5.73v-53.41l16.67-1.3v165.17ZM848.97,120.05c-24.75,0-44.55,16.67-44.55,44.81s17.46,43.77,40.9,43.77c11.72,0,22.14-3.39,31.26-10.42v-72.43c-7.03-3.38-17.98-5.73-27.62-5.73Z" fill="#fff"/>
        <path d="M1027.42,97.64h-66.18v36.74h56.53v29.96h-56.53v57.32h-34.65V66.9h103.42l-2.6,30.74Z" fill="#fff"/>
        <path d="M1101.4,224c-35.69,0-62.01-25.01-62.01-59.66s26.31-59.66,62.01-59.66,62.01,25.01,62.01,59.66-26.05,59.66-62.01,59.66ZM1101.4,133.86c-15.63,0-27.62,11.98-27.62,30.48s11.98,30.48,27.62,30.48,27.62-11.98,27.62-30.48-11.98-30.48-27.62-30.48Z" fill="#fff"/>
        <path d="M1291.05,221.65h-33.09v-9.64c-10.94,8.34-21.88,11.98-34.65,11.98-23.71,0-39.34-12.77-39.34-41.42v-74.77l33.08-1.56v69.3c0,13.55,7.04,19.02,18.5,19.02,7.55,0,15.37-2.87,22.4-7.04v-79.72l33.09-1.56v115.41Z" fill="#fff"/>
        <path d="M1393.69,221.65v-68.52c0-13.55-7.03-19.02-18.76-19.02-7.55,0-16.15,2.87-23.19,7.29v80.24h-33.08v-113.85l33.08-1.56v10.68c10.94-8.34,22.4-12.24,35.43-12.24,23.71,0,39.6,12.77,39.6,41.42v75.55h-33.09Z" fill="#fff"/>
        <path d="M1561.98,221.65h-33.35v-7.3c-8.34,6.51-18.5,9.64-29.44,9.64-28.14,0-51.84-22.41-51.84-58.36s22.93-60.96,58.36-60.96c8.08,0,16.67,1.56,22.93,4.17v-51.06l33.35-1.3v165.17ZM1510.92,133.34c-17.98,0-29.18,11.98-29.18,31.26s9.9,30.74,26.57,30.74c7.55,0,14.33-1.82,20.32-5.99v-52.63c-4.17-1.82-11.47-3.38-17.72-3.38Z" fill="#fff"/>
        <path d="M1660.71,138.03c-2.35-1.3-7.82-2.35-12.51-2.35-9.38,0-18.76,3.39-25.79,9.12v76.85h-33.09v-113.85l33.09-1.56v13.55c10.16-10.42,20.58-15.11,32.05-15.11,2.34,0,5.73.52,7.55,1.3l-1.3,32.05Z" fill="#fff"/>
        <path d="M1758.66,204.72c-14.85,43.24-38.04,63.57-64.09,67.48l-14.07-26.06c16.41-3.12,27.62-11.72,34.39-24.49l-45.07-113.85,34.91-1.56,19.28,49.76c4.43,12.77,8.34,24.49,9.9,32.05h1.3c1.3-7.55,4.43-19.28,8.08-32.05l15.63-48.98h33.61l-33.87,97.7Z" fill="#fff"/>
      </g>
      <g>
        <path d="M197.1,0c-36.2.25-70.2,14.52-95.74,40.2-25.56,25.7-39.61,59.81-39.61,96.05v136.23h136.26c74.88,0,135.98-60.93,136.19-135.87V0s-137.1,0-137.1,0ZM222.99,207.42h-96.19v-96.2h28.03s-.02,68.18-.02,68.18h68.19v28.02ZM288.89,141.53h-96.21V45.33h28.02v68.18h68.19v28.02Z" fill="#02b1a9"/>
        <polygon points="96.19 306.19 96.19 334.21 0 334.21 0 238.01 28.03 238.03 28.01 306.19 96.19 306.19" fill="#02b1a9"/>
      </g>
    </g>
  </g>
</svg>