<?xml version="1.0" encoding="UTF-8"?>
<svg id="Layer_2" data-name="Layer 2" xmlns="http://www.w3.org/2000/svg" width="1282.99" height="1283.01" viewBox="0 0 1282.99 1283.01">
  <g id="Layer_1-2" data-name="Layer 1">
    <g>
      <path d="M763.32,0c-137.16.96-266.05,55.08-362.82,152.35-96.82,97.39-150.16,226.67-150.16,364v516.3h516.47c283.77,0,515.34-231,516.13-514.89l.06-517.76h-519.67ZM874.77,803.22h-395v-395.06l131.03.11-.06,263.97h264.03v130.97ZM1129.96,548.08h-395.06l.06-395.06h130.97v264.08h264.03v130.97Z"/>
      <polygon points="372.51 1174.5 372.51 1283.01 0 1283.01 0 910.47 108.54 910.53 108.45 1174.5 372.51 1174.5"/>
    </g>
  </g>
</svg>